<svg width="256" height="256" viewBox="0 0 256 256" fill="none" xmlns="http://www.w3.org/2000/svg">
  <rect width="256" height="256" rx="56" fill="#07111F"/>
  <circle cx="128" cy="128" r="92" stroke="#F4E7D1" stroke-width="6"/>
  <circle cx="128" cy="128" r="72" stroke="#F4E7D1" stroke-width="4" opacity="0.95"/>
  <circle cx="128" cy="128" r="24" stroke="#F4E7D1" stroke-width="4"/>
  <circle cx="128" cy="128" r="7" fill="#F4E7D1"/>
  <path d="M128 61L136 108L183 95L148 128L183 161L136 148L128 195L120 148L73 161L108 128L73 95L120 108L128 61Z" stroke="#F4E7D1" stroke-width="4.5" stroke-linejoin="round"/>
  <path d="M128 36V61M128 195V220M36 128H61M195 128H220M57 57L73 73M183 183L199 199M57 199L73 183M183 73L199 57" stroke="#F4E7D1" stroke-width="4" opacity="0.9"/>
</svg>

